<?xml version="1.0" encoding="UTF-8"?>
<svg id="_レイヤー_2" data-name="レイヤー 2" xmlns="http://www.w3.org/2000/svg" viewBox="0 0 92.01 16.07">
  <defs>
    <style>
      .cls-1 {
        fill: #fff;
      }
    </style>
  </defs>
  <g id="_固定" data-name="固定">
    <g>
      <path class="cls-1" d="M10.68,11.13c.11.26.17.47.17.63,0,.76-.65,1.51-1.96,2.24-1.31.73-2.65,1.09-4.02,1.09-1.5,0-2.69-.44-3.56-1.31-.87-.87-1.31-2.07-1.31-3.59,0-2.4.79-4.46,2.36-6.19s3.45-2.59,5.64-2.59c.89,0,1.64.16,2.25.48.61.32.92.71.92,1.16,0,.41-.26.86-.79,1.36-.71-1.42-1.72-2.13-3.02-2.13-1.43,0-2.67.74-3.73,2.22-1.06,1.48-1.59,3.21-1.59,5.18,0,1.26.32,2.26.96,2.99.64.73,1.5,1.1,2.58,1.1,1.85,0,3.56-.88,5.11-2.65Z"/>
      <path class="cls-1" d="M18.86,3.23c.91-1.21,2.11-1.82,3.6-1.82,1.27,0,2.32.46,3.15,1.39s1.24,2.1,1.24,3.52c0,2.21-.89,4.23-2.67,6.05-1.78,1.82-3.75,2.73-5.91,2.73-1.56,0-2.84-.51-3.85-1.54-1.01-1.03-1.52-2.33-1.52-3.91,0-1.71.58-3.19,1.73-4.43,1.15-1.24,2.56-1.9,4.23-1.97ZM18.18,4.19c-1.05.25-1.87.81-2.48,1.68-.6.87-.91,1.94-.91,3.2,0,1.41.41,2.58,1.23,3.5.82.92,1.87,1.38,3.14,1.38,1.53,0,2.87-.72,4.04-2.17,1.17-1.44,1.75-3.11,1.75-5.01,0-1.1-.29-2.03-.87-2.78-.58-.75-1.29-1.13-2.14-1.13-.86,0-1.61.35-2.24,1.05-.63.7-.95,1.53-.95,2.49,0,.68.16,1.31.48,1.88-.64-.12-1.07-.29-1.29-.52-.22-.23-.32-.63-.32-1.21,0-.76.18-1.55.55-2.38Z"/>
      <path class="cls-1" d="M31.81,5.01l-1.12,5.63c-.21,1.07-.32,1.88-.32,2.42,0,.82.23,1.39.7,1.72-.53.21-1.02.31-1.46.31-.66,0-.99-.3-.99-.91s.35-2.36,1.05-5.36l1.31-5.62-.26-.69c-.35-.93-.78-1.49-1.3-1.68.9-.42,1.47-.63,1.71-.63.39,0,.69.18.88.55.2.37,1.06,2.36,2.59,5.98,1.72,4.07,2.85,6.1,3.4,6.1.41,0,.8-.86,1.18-2.59.38-1.73.58-3.5.58-5.33,0-1.47-.35-2.43-1.05-2.9.58-.41,1.09-.62,1.56-.62.7,0,1.05.57,1.05,1.71,0,.9-.16,2.29-.47,4.16-.31,1.87-.65,3.44-1.02,4.71-.6,2.07-1.26,3.11-2,3.11-.63,0-1.31-.56-2.04-1.68-.72-1.12-1.69-3.09-2.9-5.93-.39-.92-.66-1.53-.8-1.84l-.29-.63Z"/>
      <path class="cls-1" d="M53.7,11.13c.11.26.17.47.17.63,0,.76-.65,1.51-1.96,2.24-1.31.73-2.65,1.09-4.02,1.09-1.5,0-2.69-.44-3.56-1.31-.87-.87-1.31-2.07-1.31-3.59,0-2.4.79-4.46,2.36-6.19s3.45-2.59,5.64-2.59c.89,0,1.64.16,2.25.48.61.32.92.71.92,1.16,0,.41-.26.86-.79,1.36-.71-1.42-1.72-2.13-3.02-2.13-1.43,0-2.67.74-3.73,2.22-1.06,1.48-1.59,3.21-1.59,5.18,0,1.26.32,2.26.96,2.99.64.73,1.5,1.1,2.58,1.1,1.85,0,3.56-.88,5.11-2.65Z"/>
      <path class="cls-1" d="M59.44,8.25l-.45,2.26c-.19.94-.28,1.61-.28,2,0,.78.76,1.17,2.27,1.17s2.83-.27,3.97-.8c-.26.88-.7,1.42-1.31,1.63-.37.12-1.01.25-1.93.38s-1.62.2-2.11.2c-1.92,0-2.88-.64-2.88-1.91,0-.34.09-.99.28-1.96l.59-2.97h-.13c-.59,0-1.17.13-1.73.39.32-.63.59-1.04.8-1.21.21-.18.54-.26.99-.26h.29l.86-4.34h-.26c-1.09,0-2.09.35-3.02,1.04.29-.94.7-1.54,1.21-1.81.4-.21,1.63-.31,3.69-.31h2.62c1.65,0,3-.16,4.03-.49-.46.73-.87,1.18-1.24,1.34-.36.16-1.14.24-2.34.24h-2.84l-.88,4.34h1.82c1.27,0,2.29-.16,3.04-.48-.4.75-.75,1.19-1.06,1.35-.31.15-1.04.23-2.19.23h-1.82Z"/>
      <path class="cls-1" d="M70.88,10.14l-.79,3.86c-.11.56-.17.92-.17,1.08s.04.34.11.53c-.6.3-1.15.45-1.63.45-.31,0-.46-.12-.46-.37,0-.13.06-.5.18-1.1l.92-4.61c-1.48-.33-2.23-.83-2.23-1.48,0-.13.03-.31.09-.52.63.52,1.4.9,2.3,1.13l.61-3.05c.1-.5.15-.85.15-1.07s-.07-.39-.21-.56c.78-.29,1.32-.44,1.63-.44.36,0,.55.21.55.63,0,.1-.1.61-.29,1.54l-.61,3.1c1.69,0,3.07-.42,4.14-1.25,1.07-.83,1.61-1.9,1.61-3.2,0-.72-.28-1.29-.84-1.73-.56-.44-1.3-.66-2.22-.66-2.75,0-4.95,1.15-6.61,3.45-.14-.36-.21-.65-.21-.85,0-.89.79-1.71,2.38-2.48,1.59-.77,3.31-1.15,5.15-1.15,2.81,0,4.21,1.03,4.21,3.1,0,1.51-.73,2.83-2.18,3.95-1.46,1.13-3.16,1.69-5.1,1.69h-.48Z"/>
      <path class="cls-1" d="M86.3,3.09l-1.99,9.94c-.11.55-.17.91-.17,1.08s.04.34.11.53c-.6.3-1.15.45-1.63.45-.31,0-.46-.12-.46-.37,0-.12.06-.49.18-1.09l2.09-10.54h-1.22c-1.39,0-2.59.13-3.6.4.19-.78.45-1.27.78-1.46.33-.19,1.05-.29,2.16-.29h5.96c1.6,0,2.66-.58,3.18-1.73.21.35.31.63.31.84,0,.76-.47,1.38-1.42,1.84-.57.28-1.65.41-3.23.41h-1.05Z"/>
    </g>
  </g>
</svg>