<?xml version="1.0" encoding="UTF-8"?>
<svg id="_レイヤー_2" data-name="レイヤー 2" xmlns="http://www.w3.org/2000/svg" viewBox="0 0 69.24 15.37">
  <defs>
    <style>
      .cls-1 {
        fill: #fff;
      }
    </style>
  </defs>
  <g id="_固定" data-name="固定">
    <g>
      <path class="cls-1" d="M1.76,14.44c.16-.6.24-1.38.24-2.35,0-2.38-.19-4.68-.56-6.89C1.07,2.99.59,1.33,0,.22c.6-.15,1.03-.22,1.3-.22.39,0,.67.18.85.54.18.36.41,1.22.68,2.57.43,2.08.74,4.92.93,8.54,1.96-4.04,3.56-7.2,4.8-9.5.08-.01.13-.02.17-.03.25-.05.41-.08.5-.08.49,0,.73.23.73.7,0,.14-.01.3-.04.5-.23,1.91-.35,3.32-.35,4.23l-.03,1v.6c0,2.2.33,3.3.99,3.3.76,0,1.54-.8,2.34-2.39.89-1.78,1.33-3.87,1.33-6.25,0-1.03-.26-1.98-.77-2.87.42-.11.81-.16,1.15-.16.54,0,.92.15,1.14.45.22.3.33.83.33,1.57,0,2.41-.7,4.87-2.09,7.37-.64,1.15-1.36,2.1-2.16,2.84-.8.74-1.5,1.12-2.1,1.12-.67,0-1.14-.37-1.41-1.12-.27-.75-.41-2.03-.41-3.86,0-.73.04-1.86.11-3.38-1.41,2.46-2.49,4.48-3.24,6.08l-.29.64c-.42.86-.75,1.38-.99,1.56s-.82.33-1.73.45Z"/>
      <path class="cls-1" d="M23.36,2.54c.91-1.21,2.11-1.82,3.6-1.82,1.27,0,2.32.46,3.15,1.39.83.92,1.24,2.1,1.24,3.52,0,2.21-.89,4.23-2.67,6.05-1.78,1.82-3.75,2.73-5.91,2.73-1.56,0-2.84-.51-3.85-1.54-1.01-1.03-1.52-2.33-1.52-3.91,0-1.71.58-3.19,1.73-4.43,1.15-1.24,2.56-1.9,4.23-1.97ZM22.69,3.49c-1.05.25-1.87.81-2.48,1.68-.6.87-.91,1.94-.91,3.2,0,1.41.41,2.58,1.23,3.5.82.92,1.87,1.38,3.14,1.38,1.53,0,2.87-.72,4.04-2.17s1.75-3.11,1.75-5.01c0-1.1-.29-2.03-.87-2.78-.58-.75-1.29-1.13-2.14-1.13-.86,0-1.61.35-2.24,1.05-.63.7-.95,1.53-.95,2.49,0,.68.16,1.31.48,1.88-.64-.12-1.07-.29-1.29-.52-.22-.23-.32-.63-.32-1.21,0-.76.18-1.55.55-2.38Z"/>
      <path class="cls-1" d="M32.68,5.7c-.24-.28-.36-.6-.36-.99,0-.97.83-1.88,2.48-2.73,1.65-.85,3.42-1.27,5.31-1.27,2.91,0,4.37.93,4.37,2.78,0,.9-.31,1.66-.94,2.29-.62.63-1.72,1.29-3.27,1.97,1.4,3.2,2.61,4.8,3.63,4.8.53,0,1.11-.38,1.72-1.13.03.15.04.25.04.31,0,.49-.29,1.01-.87,1.54-.58.53-1.14.8-1.68.8-1.37,0-2.84-1.87-4.39-5.62-.31.09-.59.13-.85.13-.12,0-.24-.02-.34-.07.22-1.11.77-1.66,1.65-1.66.18,0,.39.04.65.11,1.92-.65,2.89-1.72,2.89-3.21,0-.55-.27-1-.82-1.36-.55-.36-1.25-.53-2.1-.53-1.44,0-2.83.36-4.16,1.08-1.33.72-2.32,1.64-2.95,2.77ZM35.85,14.92c-.6.3-1.14.45-1.63.45-.31,0-.46-.12-.46-.37,0-.13.07-.5.2-1.1l1.69-8.52c.1-.49.15-.85.15-1.07,0-.21-.07-.39-.21-.56.78-.29,1.32-.44,1.63-.44.37,0,.55.21.55.63,0,.1-.1.61-.29,1.54l-1.56,7.83c-.11.55-.17.93-.17,1.15,0,.12.03.28.09.46Z"/>
      <path class="cls-1" d="M50.78,7.7l-.92,4.64c-.11.55-.17.91-.17,1.08s.04.34.11.53c-.6.3-1.15.45-1.63.45-.31,0-.46-.12-.46-.37,0-.13.06-.5.18-1.12l2.13-10.72c-.52.07-1,.11-1.44.11-.92,0-1.47-.61-1.65-1.83.42.35.99.52,1.71.52.9,0,2.07-.09,3.52-.26l-1.28,6.42c3.36-2.29,5.34-4.45,5.94-6.49.83.43,1.25.89,1.25,1.37,0,.27-.62.96-1.85,2.07-1.23,1.11-2.49,2.11-3.77,2.99,1.07,2.02,2.12,3.67,3.15,4.93s1.82,1.9,2.38,1.9c.6,0,1.26-.33,1.98-.99v.23c0,.44-.3.9-.91,1.37-.62.47-1.21.71-1.79.71-1.5,0-3.66-2.5-6.49-7.51Z"/>
      <path class="cls-1" d="M60.94,10.99c0,.96.26,1.71.79,2.25.53.55,1.25.82,2.18.82.82,0,1.53-.25,2.14-.74.6-.49.91-1.07.91-1.73,0-.71-.67-1.69-2-2.93l-.97-.9c-1.24-1.15-1.86-2.21-1.86-3.18,0-1.13.44-2.05,1.32-2.78.88-.73,2-1.09,3.36-1.09.72,0,1.31.11,1.75.33.45.22.67.51.67.86s-.16.75-.48,1.21c-.51-.99-1.34-1.48-2.49-1.48-.72,0-1.32.22-1.81.66-.49.44-.74.99-.74,1.64,0,.43.08.77.24.99.16.23.66.73,1.5,1.5l.79.73c1.44,1.34,2.17,2.55,2.17,3.62,0,1.24-.49,2.28-1.48,3.09-.99.82-2.23,1.23-3.72,1.23-1,0-1.83-.23-2.49-.7-.65-.47-.98-1.06-.98-1.78,0-.49.4-1.03,1.19-1.62Z"/>
    </g>
  </g>
</svg>