<?xml version="1.0" encoding="UTF-8"?>
<svg id="_レイヤー_2" data-name="レイヤー 2" xmlns="http://www.w3.org/2000/svg" viewBox="0 0 94.15 15.09">
  <defs>
    <style>
      .cls-1 {
        fill: #fff;
      }
    </style>
  </defs>
  <g id="_固定" data-name="固定">
    <g>
      <path class="cls-1" d="M10.68,11.13c.11.26.17.47.17.63,0,.76-.65,1.51-1.96,2.24-1.31.73-2.65,1.09-4.02,1.09-1.5,0-2.69-.44-3.56-1.31-.87-.87-1.31-2.07-1.31-3.59,0-2.4.79-4.46,2.36-6.19s3.45-2.59,5.64-2.59c.89,0,1.64.16,2.25.48.61.32.92.71.92,1.16,0,.41-.26.86-.79,1.36-.71-1.42-1.72-2.13-3.02-2.13-1.43,0-2.67.74-3.73,2.22-1.06,1.48-1.59,3.21-1.59,5.18,0,1.26.32,2.26.96,2.99.64.73,1.5,1.1,2.58,1.1,1.85,0,3.56-.88,5.11-2.65Z"/>
      <path class="cls-1" d="M18.86,3.23c.91-1.21,2.11-1.82,3.6-1.82,1.27,0,2.32.46,3.15,1.39s1.24,2.1,1.24,3.52c0,2.21-.89,4.23-2.67,6.05-1.78,1.82-3.75,2.73-5.91,2.73-1.56,0-2.84-.51-3.85-1.54-1.01-1.03-1.52-2.33-1.52-3.91,0-1.71.58-3.19,1.73-4.43,1.15-1.24,2.56-1.9,4.23-1.97ZM18.18,4.19c-1.05.25-1.87.81-2.48,1.68-.6.87-.91,1.94-.91,3.2,0,1.41.41,2.58,1.23,3.5.82.92,1.87,1.38,3.14,1.38,1.53,0,2.87-.72,4.04-2.17s1.75-3.11,1.75-5.01c0-1.1-.29-2.03-.87-2.78-.58-.75-1.29-1.13-2.14-1.13-.86,0-1.61.35-2.24,1.05-.63.7-.95,1.53-.95,2.49,0,.68.16,1.31.48,1.88-.64-.12-1.07-.29-1.29-.52-.22-.23-.32-.63-.32-1.21,0-.76.18-1.55.55-2.38Z"/>
      <path class="cls-1" d="M31.81,5.01l-1.12,5.63c-.21,1.07-.32,1.88-.32,2.42,0,.82.23,1.39.7,1.72-.53.21-1.02.31-1.46.31-.66,0-.99-.3-.99-.91s.35-2.36,1.05-5.36l1.31-5.62-.26-.69c-.35-.93-.78-1.49-1.3-1.68.9-.42,1.47-.63,1.71-.63.39,0,.69.18.88.55.2.37,1.06,2.36,2.59,5.98,1.72,4.07,2.85,6.1,3.4,6.1.41,0,.8-.86,1.18-2.59.38-1.73.58-3.5.58-5.33,0-1.47-.35-2.43-1.05-2.9.58-.41,1.09-.62,1.56-.62.7,0,1.05.57,1.05,1.71,0,.9-.16,2.29-.47,4.16-.31,1.87-.65,3.44-1.02,4.71-.6,2.07-1.26,3.11-2,3.11-.63,0-1.31-.56-2.04-1.68-.72-1.12-1.69-3.09-2.9-5.93-.39-.92-.66-1.53-.8-1.84l-.29-.63Z"/>
      <path class="cls-1" d="M49.98,3.09l-1.99,9.94c-.11.55-.17.91-.17,1.08s.04.34.11.53c-.6.3-1.15.45-1.63.45-.31,0-.46-.12-.46-.37,0-.12.06-.49.18-1.09l2.09-10.54h-1.22c-1.39,0-2.59.13-3.6.4.19-.78.45-1.27.78-1.46.33-.19,1.05-.29,2.16-.29h5.96c1.6,0,2.66-.58,3.18-1.73.21.35.31.63.31.84,0,.76-.47,1.38-1.42,1.84-.57.28-1.65.41-3.23.41h-1.05Z"/>
      <path class="cls-1" d="M57.74,10.43l-.18.33c-.74,1.38-1.11,2.45-1.11,3.2,0,.22.08.44.26.65-.14.05-.46.16-.95.34-.23.08-.45.12-.65.12-.41,0-.62-.2-.62-.59,0-.82.51-2.06,1.52-3.73l.27-.45h-.45c-.96,0-1.71.15-2.24.45.28-.99,1.02-1.49,2.23-1.49l1.09.03.24-.35c.92-1.38,2.33-3.25,4.23-5.59.64-.79,1.12-1.29,1.43-1.48.32-.19.93-.37,1.84-.53-.17,1.06-.26,2.04-.26,2.95,0,2.41.28,4.86.84,7.33.31,1.36.77,2.24,1.4,2.63-.55.55-1.02.82-1.42.82-.93,0-1.64-1.59-2.15-4.77-.97.11-1.95.16-2.93.16l-2.4-.04ZM58.37,9.39l1.78.04c1.21,0,2.14-.04,2.79-.12-.27-2.06-.4-3.77-.4-5.12v-.66c-.18.25-.62.78-1.29,1.6-1.22,1.5-2.12,2.8-2.68,3.92l-.18.34Z"/>
      <path class="cls-1" d="M79.39,11.13c.11.26.17.47.17.63,0,.76-.65,1.51-1.96,2.24-1.31.73-2.65,1.09-4.02,1.09-1.5,0-2.69-.44-3.56-1.31-.87-.87-1.31-2.07-1.31-3.59,0-2.4.79-4.46,2.36-6.19,1.57-1.73,3.45-2.59,5.64-2.59.89,0,1.64.16,2.25.48.61.32.92.71.92,1.16,0,.41-.26.86-.79,1.36-.71-1.42-1.72-2.13-3.02-2.13-1.43,0-2.67.74-3.73,2.22-1.06,1.48-1.59,3.21-1.59,5.18,0,1.26.32,2.26.96,2.99.64.73,1.5,1.1,2.58,1.1,1.85,0,3.56-.88,5.11-2.65Z"/>
      <path class="cls-1" d="M88.44,3.09l-1.99,9.94c-.11.55-.17.91-.17,1.08s.04.34.11.53c-.6.3-1.15.45-1.63.45-.31,0-.46-.12-.46-.37,0-.12.06-.49.18-1.09l2.09-10.54h-1.22c-1.39,0-2.59.13-3.6.4.19-.78.45-1.27.78-1.46.33-.19,1.05-.29,2.16-.29h5.96c1.6,0,2.66-.58,3.18-1.73.21.35.31.63.31.84,0,.76-.47,1.38-1.42,1.84-.57.28-1.65.41-3.23.41h-1.05Z"/>
    </g>
  </g>
</svg>