<?xml version="1.0" encoding="UTF-8"?>
<svg id="_レイヤー_2" data-name="レイヤー 2" xmlns="http://www.w3.org/2000/svg" viewBox="0 0 72.3 15.53">
  <defs>
    <style>
      .cls-1 {
        fill: #fff;
      }
    </style>
  </defs>
  <g id="_固定" data-name="固定">
    <g>
      <path class="cls-1" d="M4.14,10.43l-.18.33c-.74,1.38-1.11,2.45-1.11,3.2,0,.22.08.44.26.65-.14.05-.46.16-.95.34-.23.08-.45.12-.65.12-.41,0-.62-.2-.62-.59,0-.82.51-2.06,1.52-3.73l.27-.45h-.45c-.96,0-1.71.15-2.24.45.28-.99,1.02-1.49,2.23-1.49l1.09.03.24-.35c.92-1.38,2.33-3.25,4.23-5.59.64-.79,1.12-1.29,1.43-1.48.32-.19.93-.37,1.84-.53-.17,1.06-.26,2.04-.26,2.95,0,2.41.28,4.86.84,7.33.31,1.36.77,2.24,1.4,2.63-.55.55-1.02.82-1.42.82-.93,0-1.64-1.59-2.15-4.77-.97.11-1.95.16-2.93.16l-2.4-.04ZM4.77,9.39l1.78.04c1.21,0,2.14-.04,2.79-.12-.27-2.06-.4-3.77-.4-5.12v-.66c-.18.25-.62.78-1.29,1.6-1.22,1.5-2.12,2.8-2.68,3.92l-.18.34Z"/>
      <path class="cls-1" d="M14.81,6.36c-.15-.32-.23-.63-.23-.92,0-1.01.82-1.93,2.45-2.77,1.63-.84,3.43-1.26,5.38-1.26,1.09,0,1.97.21,2.65.63.67.42,1.01.96,1.01,1.64,0,1.25-.89,2.42-2.67,3.52,1.04.28,1.85.71,2.44,1.28.59.57.88,1.21.88,1.94,0,1.42-.77,2.63-2.32,3.63-1.54,1-3.41,1.5-5.61,1.5-1.61,0-2.42-.51-2.42-1.52,0-.24.09-.8.26-1.69l1.24-6.24c.1-.5.15-.85.15-1.07s-.07-.39-.21-.56c.77-.29,1.32-.44,1.63-.44.36,0,.55.21.55.63,0,.11-.1.62-.29,1.55l-1.15,5.79c-.13.67-.19,1.11-.19,1.31,0,.74.7,1.11,2.11,1.11,1.16,0,2.15-.33,2.97-1,.82-.67,1.24-1.47,1.24-2.4,0-.73-.23-1.3-.69-1.71s-1.22-.73-2.29-.95c-.38.15-.8.23-1.25.23-.15,0-.34-.03-.57-.08.17-.63.38-1.05.64-1.27.26-.22.67-.33,1.24-.33.15,0,.34,0,.59.03,1.25-.92,1.87-1.82,1.87-2.72,0-1.06-.81-1.59-2.43-1.59-2.62,0-4.95,1.25-6.99,3.76Z"/>
      <path class="cls-1" d="M34.8,3.23c.91-1.21,2.11-1.82,3.6-1.82,1.27,0,2.32.46,3.15,1.39.83.92,1.24,2.1,1.24,3.52,0,2.21-.89,4.23-2.67,6.05-1.78,1.82-3.75,2.73-5.91,2.73-1.56,0-2.84-.51-3.85-1.54-1.01-1.03-1.52-2.33-1.52-3.91,0-1.71.58-3.19,1.73-4.43,1.15-1.24,2.56-1.9,4.23-1.97ZM34.12,4.19c-1.05.25-1.87.81-2.48,1.68-.6.87-.91,1.94-.91,3.2,0,1.41.41,2.58,1.23,3.5.82.92,1.87,1.38,3.14,1.38,1.53,0,2.87-.72,4.04-2.17s1.75-3.11,1.75-5.01c0-1.1-.29-2.03-.87-2.78-.58-.75-1.29-1.13-2.14-1.13-.86,0-1.61.35-2.24,1.05-.63.7-.95,1.53-.95,2.49,0,.68.16,1.31.48,1.88-.64-.12-1.07-.29-1.29-.52-.22-.23-.32-.63-.32-1.21,0-.76.18-1.55.55-2.38Z"/>
      <path class="cls-1" d="M53.34,10.85c-1.77,2.54-3.5,3.81-5.2,3.81-.92,0-1.68-.34-2.28-1.01-.6-.67-.9-1.52-.9-2.56,0-2.07.8-4.82,2.41-8.25-.49.09-.94.14-1.36.14-.55,0-.95-.14-1.21-.41s-.44-.75-.54-1.42c.44.35,1.01.52,1.71.52.4,0,1.73-.1,4-.31-2.07,4.05-3.11,7.14-3.11,9.27,0,.76.19,1.39.57,1.88.38.49.86.73,1.46.73.83,0,1.66-.41,2.48-1.23s1.59-2.01,2.31-3.56c.52-2.86.98-4.62,1.38-5.27.4-.66,1.21-.99,2.43-.99-.53.69-1.06,2.12-1.58,4.3-.52,2.18-.78,4.04-.78,5.59,0,1.21.37,1.82,1.11,1.82.46,0,1.01-.25,1.64-.75.02.14.04.25.04.32,0,.4-.24.77-.72,1.11-.48.34-1,.51-1.57.51-1.58,0-2.37-1-2.37-3.01,0-.28.03-.69.09-1.23Z"/>
      <path class="cls-1" d="M66.59,3.09l-1.99,9.94c-.11.55-.17.91-.17,1.08s.04.34.11.53c-.6.3-1.15.45-1.63.45-.31,0-.46-.12-.46-.37,0-.12.06-.49.18-1.09l2.09-10.54h-1.22c-1.39,0-2.59.13-3.6.4.19-.78.45-1.27.78-1.46.33-.19,1.05-.29,2.16-.29h5.96c1.6,0,2.66-.58,3.18-1.73.21.35.31.63.31.84,0,.76-.47,1.38-1.42,1.84-.57.28-1.65.41-3.23.41h-1.05Z"/>
    </g>
  </g>
</svg>